<svg width="22" height="22" viewBox="0 0 22 22"  xmlns="http://www.w3.org/2000/svg">
<path d="M0.5 2.75C0.5 2.15326 0.737053 1.58097 1.15901 1.15901C1.58097 0.737053 2.15326 0.5 2.75 0.5H7.25C7.84674 0.5 8.41903 0.737053 8.84099 1.15901C9.26295 1.58097 9.5 2.15326 9.5 2.75V7.25C9.5 7.84674 9.26295 8.41903 8.84099 8.84099C8.41903 9.26295 7.84674 9.5 7.25 9.5H2.75C2.15326 9.5 1.58097 9.26295 1.15901 8.84099C0.737053 8.41903 0.5 7.84674 0.5 7.25V2.75ZM12.5 2.75C12.5 2.15326 12.7371 1.58097 13.159 1.15901C13.581 0.737053 14.1533 0.5 14.75 0.5H19.25C19.8467 0.5 20.419 0.737053 20.841 1.15901C21.2629 1.58097 21.5 2.15326 21.5 2.75V7.25C21.5 7.84674 21.2629 8.41903 20.841 8.84099C20.419 9.26295 19.8467 9.5 19.25 9.5H14.75C14.1533 9.5 13.581 9.26295 13.159 8.84099C12.7371 8.41903 12.5 7.84674 12.5 7.25V2.75ZM0.5 14.75C0.5 14.1533 0.737053 13.581 1.15901 13.159C1.58097 12.7371 2.15326 12.5 2.75 12.5H7.25C7.84674 12.5 8.41903 12.7371 8.84099 13.159C9.26295 13.581 9.5 14.1533 9.5 14.75V19.25C9.5 19.8467 9.26295 20.419 8.84099 20.841C8.41903 21.2629 7.84674 21.5 7.25 21.5H2.75C2.15326 21.5 1.58097 21.2629 1.15901 20.841C0.737053 20.419 0.5 19.8467 0.5 19.25V14.75ZM12.5 14.75C12.5 14.1533 12.7371 13.581 13.159 13.159C13.581 12.7371 14.1533 12.5 14.75 12.5H19.25C19.8467 12.5 20.419 12.7371 20.841 13.159C21.2629 13.581 21.5 14.1533 21.5 14.75V19.25C21.5 19.8467 21.2629 20.419 20.841 20.841C20.419 21.2629 19.8467 21.5 19.25 21.5H14.75C14.1533 21.5 13.581 21.2629 13.159 20.841C12.7371 20.419 12.5 19.8467 12.5 19.25V14.75Z" fill="current"/>
</svg>
