<svg width="22" height="16" viewBox="0 0 22 16"  xmlns="http://www.w3.org/2000/svg">
<path fill-rule="evenodd" clip-rule="evenodd" d="M6.5 14.25C6.5 14.0511 6.57902 13.8603 6.71967 13.7197C6.86032 13.579 7.05109 13.5 7.25 13.5H20.75C20.9489 13.5 21.1397 13.579 21.2803 13.7197C21.421 13.8603 21.5 14.0511 21.5 14.25C21.5 14.4489 21.421 14.6397 21.2803 14.7803C21.1397 14.921 20.9489 15 20.75 15H7.25C7.05109 15 6.86032 14.921 6.71967 14.7803C6.57902 14.6397 6.5 14.4489 6.5 14.25ZM6.5 8.25C6.5 8.05109 6.57902 7.86032 6.71967 7.71967C6.86032 7.57902 7.05109 7.5 7.25 7.5H20.75C20.9489 7.5 21.1397 7.57902 21.2803 7.71967C21.421 7.86032 21.5 8.05109 21.5 8.25C21.5 8.44891 21.421 8.63968 21.2803 8.78033C21.1397 8.92098 20.9489 9 20.75 9H7.25C7.05109 9 6.86032 8.92098 6.71967 8.78033C6.57902 8.63968 6.5 8.44891 6.5 8.25ZM6.5 2.25C6.5 2.05109 6.57902 1.86032 6.71967 1.71967C6.86032 1.57902 7.05109 1.5 7.25 1.5H20.75C20.9489 1.5 21.1397 1.57902 21.2803 1.71967C21.421 1.86032 21.5 2.05109 21.5 2.25C21.5 2.44891 21.421 2.63968 21.2803 2.78033C21.1397 2.92098 20.9489 3 20.75 3H7.25C7.05109 3 6.86032 2.92098 6.71967 2.78033C6.57902 2.63968 6.5 2.44891 6.5 2.25ZM2 3.75C2.39782 3.75 2.77936 3.59196 3.06066 3.31066C3.34196 3.02936 3.5 2.64782 3.5 2.25C3.5 1.85218 3.34196 1.47064 3.06066 1.18934C2.77936 0.908035 2.39782 0.75 2 0.75C1.60218 0.75 1.22064 0.908035 0.93934 1.18934C0.658035 1.47064 0.5 1.85218 0.5 2.25C0.5 2.64782 0.658035 3.02936 0.93934 3.31066C1.22064 3.59196 1.60218 3.75 2 3.75ZM2 9.75C2.39782 9.75 2.77936 9.59196 3.06066 9.31066C3.34196 9.02936 3.5 8.64782 3.5 8.25C3.5 7.85218 3.34196 7.47064 3.06066 7.18934C2.77936 6.90804 2.39782 6.75 2 6.75C1.60218 6.75 1.22064 6.90804 0.93934 7.18934C0.658035 7.47064 0.5 7.85218 0.5 8.25C0.5 8.64782 0.658035 9.02936 0.93934 9.31066C1.22064 9.59196 1.60218 9.75 2 9.75ZM2 15.75C2.39782 15.75 2.77936 15.592 3.06066 15.3107C3.34196 15.0294 3.5 14.6478 3.5 14.25C3.5 13.8522 3.34196 13.4706 3.06066 13.1893C2.77936 12.908 2.39782 12.75 2 12.75C1.60218 12.75 1.22064 12.908 0.93934 13.1893C0.658035 13.4706 0.5 13.8522 0.5 14.25C0.5 14.6478 0.658035 15.0294 0.93934 15.3107C1.22064 15.592 1.60218 15.75 2 15.75Z" fill="current"/>
</svg>
