<svg class="svg-icon"  viewBox="0 0 1024 1024" version="1.1" xmlns="http://www.w3.org/2000/svg"><path d="M865.1 319.9H158.4c-17.6 0-31.9-14.3-31.9-31.9v-0.4c0-17.6 14.3-31.9 31.9-31.9h706.7c17.6 0 31.9 14.3 31.9 31.9v0.4c0 17.6-14.3 31.9-31.9 31.9zM729.8 960.3H295.3c-39.3 0-71.3-32-71.3-71.3V416.2c0-17.7 14.3-32 32-32s32 14.3 32 32V889c0 4 3.3 7.3 7.3 7.3h434.5c4 0 7.3-3.3 7.3-7.3V416.2c0-17.7 14.3-32 32-32s32 14.3 32 32V889c0 39.3-32 71.3-71.3 71.3z"  /><path d="M416.1 801c-17.7 0-32-14.3-32-32V481.3c0-17.7 14.3-32 32-32s32 14.3 32 32V769c0 17.7-14.3 32-32 32zM608.1 799.9c-17.7 0-32-14.3-32-32V480.2c0-17.7 14.3-32 32-32s32 14.3 32 32v287.7c0 17.7-14.3 32-32 32zM703.3 193.8c-17.7 0-32-14.3-32-32v-0.9-1.1H352.9v2c0 17.7-14.3 32-32 32s-32-14.3-32-32v-0.9c0-15.7 4.8-30.8 13.6-42.5 10.7-14.3 26.4-22.5 43.1-22.5h333.1c16.7 0 32.4 8.2 43.1 22.5 8.8 11.7 13.6 26.8 13.6 42.5v0.9c-0.1 17.7-14.4 32-32.1 32z"  /></svg>