<svg width="22" height="16" viewBox="0 0 22 16" fill="none" xmlns="http://www.w3.org/2000/svg">
<path d="M20.333 0.5H2.33301C1.93518 0.5 1.55365 0.658035 1.27235 0.93934C0.991043 1.22064 0.833008 1.60218 0.833008 2V14C0.833008 14.3978 0.991043 14.7794 1.27235 15.0607C1.55365 15.342 1.93518 15.5 2.33301 15.5H20.333C20.7308 15.5 21.1124 15.342 21.3937 15.0607C21.675 14.7794 21.833 14.3978 21.833 14V2C21.833 1.60218 21.675 1.22064 21.3937 0.93934C21.1124 0.658035 20.7308 0.5 20.333 0.5ZM18.683 2L11.333 7.085L3.98301 2H18.683ZM2.33301 14V2.6825L10.9055 8.615C11.0311 8.7021 11.1802 8.74877 11.333 8.74877C11.4858 8.74877 11.635 8.7021 11.7605 8.615L20.333 2.6825V14H2.33301Z" fill="white"/>
</svg>
