<svg width="24" height="22" viewBox="0 0 24 22" fill="none" xmlns="http://www.w3.org/2000/svg">
<path d="M12.0055 5.60934C8.59832 5.60934 5.85011 8.01403 5.85011 10.9953C5.85011 13.9765 8.59832 16.3812 12.0055 16.3812C15.4126 16.3812 18.1608 13.9765 18.1608 10.9953C18.1608 8.01403 15.4126 5.60934 12.0055 5.60934ZM12.0055 14.4968C9.80368 14.4968 8.00368 12.9265 8.00368 10.9953C8.00368 9.06403 9.79832 7.49371 12.0055 7.49371C14.2126 7.49371 16.0072 9.06403 16.0072 10.9953C16.0072 12.9265 14.2072 14.4968 12.0055 14.4968ZM19.8483 5.38903C19.8483 6.08746 19.2055 6.64528 18.4126 6.64528C17.6144 6.64528 16.9769 6.08278 16.9769 5.38903C16.9769 4.69528 17.6197 4.13278 18.4126 4.13278C19.2055 4.13278 19.8483 4.69528 19.8483 5.38903ZM23.9251 6.66403C23.834 4.98121 23.3947 3.49059 21.9858 2.26246C20.5822 1.03434 18.8787 0.649963 16.9555 0.565588C14.9733 0.467151 9.03225 0.467151 7.05011 0.565588C5.13225 0.645276 3.42868 1.02965 2.01975 2.25778C0.610826 3.4859 0.176897 4.97653 0.0804687 6.65934C-0.0320312 8.39371 -0.0320312 13.5921 0.0804687 15.3265C0.17154 17.0093 0.610826 18.5 2.01975 19.7281C3.42868 20.9562 5.12689 21.3406 7.05011 21.425C9.03225 21.5234 14.9733 21.5234 16.9555 21.425C18.8787 21.3453 20.5822 20.9609 21.9858 19.7281C23.3894 18.5 23.8287 17.0093 23.9251 15.3265C24.0376 13.5921 24.0376 8.3984 23.9251 6.66403ZM21.3644 17.1875C20.9465 18.1062 20.1376 18.814 19.0822 19.1843C17.5019 19.7328 13.7519 19.6062 12.0055 19.6062C10.259 19.6062 6.50368 19.7281 4.92868 19.1843C3.87868 18.8187 3.06975 18.1109 2.64654 17.1875C2.01975 15.8047 2.1644 12.5234 2.1644 10.9953C2.1644 9.46715 2.02511 6.18121 2.64654 4.80309C3.0644 3.88434 3.87332 3.17653 4.92868 2.80621C6.50904 2.25778 10.259 2.38434 12.0055 2.38434C13.7519 2.38434 17.5072 2.26246 19.0822 2.80621C20.1322 3.17184 20.9412 3.87965 21.3644 4.80309C21.9912 6.1859 21.8465 9.46715 21.8465 10.9953C21.8465 12.5234 21.9912 15.8093 21.3644 17.1875Z" fill="white"/>
</svg>
