<svg width="24" height="18" viewBox="0 0 24 18" fill="none" xmlns="http://www.w3.org/2000/svg">
<path d="M22.9022 2.81639C22.6405 1.7078 21.8694 0.834703 20.8903 0.538406C19.1157 0 11.9999 0 11.9999 0C11.9999 0 4.88403 0 3.10941 0.538406C2.13036 0.83475 1.35928 1.7078 1.09757 2.81639C0.62207 4.82578 0.62207 9.01819 0.62207 9.01819C0.62207 9.01819 0.62207 13.2106 1.09757 15.22C1.35928 16.3286 2.13036 17.1653 3.10941 17.4616C4.88403 18 11.9999 18 11.9999 18C11.9999 18 19.1157 18 20.8903 17.4616C21.8694 17.1653 22.6405 16.3286 22.9022 15.22C23.3777 13.2106 23.3777 9.01819 23.3777 9.01819C23.3777 9.01819 23.3777 4.82578 22.9022 2.81639ZM9.67258 12.8246V5.2118L15.62 9.01828L9.67258 12.8246Z" fill="white"/>
</svg>
