<svg width="20" height="20" viewBox="0 0 20 20" fill="none" xmlns="http://www.w3.org/2000/svg">
<path d="M18.1948 2.48096H15.2418C15.1827 2.48096 15.1259 2.50445 15.0841 2.54627C15.0423 2.58809 15.0188 2.64481 15.0188 2.70396C15.0188 2.74196 15.0308 2.77596 15.0473 2.80696V4.50596C15.0474 4.56822 15.0351 4.62989 15.0113 4.68743C14.9876 4.74497 14.9526 4.79724 14.9086 4.84127C14.8646 4.8853 14.8123 4.92021 14.7548 4.94401C14.6972 4.96781 14.6356 4.98002 14.5733 4.97996H13.6543C13.5965 4.97996 13.5393 4.96858 13.4859 4.94646C13.4325 4.92435 13.384 4.89194 13.3432 4.85108C13.3023 4.81023 13.2699 4.76172 13.2478 4.70834C13.2257 4.65495 13.2143 4.59774 13.2143 4.53996V2.83446C13.2438 2.79725 13.2603 2.75142 13.2613 2.70396C13.2614 2.67465 13.2556 2.64563 13.2445 2.61854C13.2333 2.59146 13.2168 2.56685 13.1961 2.54613C13.1754 2.52541 13.1508 2.50898 13.1237 2.4978C13.0966 2.48661 13.0676 2.48089 13.0383 2.48096H7.0858C7.02665 2.48096 6.96993 2.50445 6.92811 2.54627C6.88629 2.58809 6.8628 2.64481 6.8628 2.70396C6.8628 2.73846 6.8723 2.76996 6.8863 2.79946V4.51796C6.8863 4.57869 6.87433 4.63884 6.85109 4.69495C6.82785 4.75106 6.79378 4.80205 6.75083 4.84499C6.70789 4.88794 6.6569 4.92201 6.60079 4.94525C6.54468 4.96849 6.48453 4.98046 6.4238 4.98046H5.6078C5.48394 4.98046 5.36516 4.93126 5.27758 4.84368C5.19 4.7561 5.1408 4.63731 5.1408 4.51346V2.81196C5.16065 2.77937 5.17152 2.74211 5.1723 2.70396C5.17236 2.67465 5.16664 2.64563 5.15546 2.61854C5.14427 2.59146 5.12785 2.56685 5.10713 2.54613C5.08641 2.52541 5.0618 2.50898 5.03471 2.4978C5.00763 2.48661 4.9786 2.48089 4.9493 2.48096H1.8378C1.70638 2.48109 1.58037 2.53332 1.48739 2.6262C1.39442 2.71908 1.34206 2.84504 1.3418 2.97646V17.7435C1.3418 18.0175 1.5643 18.24 1.8378 18.24H18.1948C18.3263 18.2397 18.4523 18.1873 18.5452 18.0942C18.6381 18.0011 18.6903 17.875 18.6903 17.7435V2.97646C18.69 2.84512 18.6377 2.71925 18.5449 2.62638C18.452 2.53351 18.3261 2.48122 18.1948 2.48096V2.48096ZM18.1948 17.794H1.8378C1.83119 17.794 1.82465 17.7926 1.81855 17.7901C1.81245 17.7876 1.80691 17.7838 1.80226 17.7791C1.79761 17.7744 1.79394 17.7689 1.79146 17.7627C1.78898 17.7566 1.78773 17.7501 1.7878 17.7435V6.60696H18.2443V17.743C18.2444 17.7496 18.2433 17.7561 18.2408 17.7623C18.2384 17.7684 18.2348 17.774 18.2302 17.7788C18.2256 17.7835 18.2201 17.7873 18.214 17.7899C18.2079 17.7925 18.2014 17.7939 18.1948 17.794V17.794Z" fill="#007CC7"/>
<path d="M6.07359 4.47198C6.19659 4.47198 6.29659 4.37198 6.29659 4.24898V1.24998C6.29659 1.22069 6.29082 1.19169 6.27961 1.16464C6.2684 1.13758 6.25198 1.113 6.23127 1.09229C6.21056 1.07159 6.18598 1.05516 6.15892 1.04395C6.13187 1.03275 6.10287 1.02698 6.07359 1.02698C6.0443 1.02698 6.0153 1.03275 5.98825 1.04395C5.96119 1.05516 5.93661 1.07159 5.9159 1.09229C5.89519 1.113 5.87877 1.13758 5.86756 1.16464C5.85635 1.19169 5.85059 1.22069 5.85059 1.24998V4.24948C5.85059 4.37248 5.95059 4.47198 6.07359 4.47198Z" fill="#007CC7"/>
<path d="M14.1507 4.47198C14.2737 4.47198 14.3737 4.37198 14.3737 4.24898V1.24998C14.3737 1.19083 14.3502 1.13411 14.3084 1.09229C14.2666 1.05047 14.2099 1.02698 14.1507 1.02698C14.0916 1.02698 14.0349 1.05047 13.993 1.09229C13.9512 1.13411 13.9277 1.19083 13.9277 1.24998V4.24948C13.9277 4.37248 14.0272 4.47198 14.1507 4.47198Z" fill="#007CC7"/>
<path d="M4.92138 9.98046C5.60014 9.98046 6.15038 9.43022 6.15038 8.75146C6.15038 8.0727 5.60014 7.52246 4.92138 7.52246C4.24262 7.52246 3.69238 8.0727 3.69238 8.75146C3.69238 9.43022 4.24262 9.98046 4.92138 9.98046Z" fill="#007CC7"/>
<path d="M8.45361 9.98046C9.13237 9.98046 9.68261 9.43022 9.68261 8.75146C9.68261 8.0727 9.13237 7.52246 8.45361 7.52246C7.77485 7.52246 7.22461 8.0727 7.22461 8.75146C7.22461 9.43022 7.77485 9.98046 8.45361 9.98046Z" fill="#007CC7"/>
<path d="M11.9849 9.98046C12.6636 9.98046 13.2139 9.43022 13.2139 8.75146C13.2139 8.0727 12.6636 7.52246 11.9849 7.52246C11.3061 7.52246 10.7559 8.0727 10.7559 8.75146C10.7559 9.43022 11.3061 9.98046 11.9849 9.98046Z" fill="#007CC7"/>
<path d="M4.92138 13.4029C5.60014 13.4029 6.15038 12.8527 6.15038 12.1739C6.15038 11.4952 5.60014 10.9449 4.92138 10.9449C4.24262 10.9449 3.69238 11.4952 3.69238 12.1739C3.69238 12.8527 4.24262 13.4029 4.92138 13.4029Z" fill="#007CC7"/>
<path d="M8.45361 13.4029C9.13237 13.4029 9.68261 12.8527 9.68261 12.1739C9.68261 11.4952 9.13237 10.9449 8.45361 10.9449C7.77485 10.9449 7.22461 11.4952 7.22461 12.1739C7.22461 12.8527 7.77485 13.4029 8.45361 13.4029Z" fill="#007CC7"/>
<path d="M11.9849 13.4029C12.6636 13.4029 13.2139 12.8527 13.2139 12.1739C13.2139 11.4952 12.6636 10.9449 11.9849 10.9449C11.3061 10.9449 10.7559 11.4952 10.7559 12.1739C10.7559 12.8527 11.3061 13.4029 11.9849 13.4029Z" fill="#007CC7"/>
<path d="M4.92138 16.8254C5.60014 16.8254 6.15038 16.2752 6.15038 15.5964C6.15038 14.9177 5.60014 14.3674 4.92138 14.3674C4.24262 14.3674 3.69238 14.9177 3.69238 15.5964C3.69238 16.2752 4.24262 16.8254 4.92138 16.8254Z" fill="#007CC7"/>
<path d="M8.45361 16.8254C9.13237 16.8254 9.68261 16.2752 9.68261 15.5964C9.68261 14.9177 9.13237 14.3674 8.45361 14.3674C7.77485 14.3674 7.22461 14.9177 7.22461 15.5964C7.22461 16.2752 7.77485 16.8254 8.45361 16.8254Z" fill="#007CC7"/>
<path d="M11.9849 16.8254C12.6636 16.8254 13.2139 16.2752 13.2139 15.5964C13.2139 14.9177 12.6636 14.3674 11.9849 14.3674C11.3061 14.3674 10.7559 14.9177 10.7559 15.5964C10.7559 16.2752 11.3061 16.8254 11.9849 16.8254Z" fill="#007CC7"/>
<path d="M15.4341 9.98046C16.1128 9.98046 16.6631 9.43022 16.6631 8.75146C16.6631 8.0727 16.1128 7.52246 15.4341 7.52246C14.7553 7.52246 14.2051 8.0727 14.2051 8.75146C14.2051 9.43022 14.7553 9.98046 15.4341 9.98046Z" fill="#007CC7"/>
<path d="M15.4341 13.4029C16.1128 13.4029 16.6631 12.8527 16.6631 12.1739C16.6631 11.4952 16.1128 10.9449 15.4341 10.9449C14.7553 10.9449 14.2051 11.4952 14.2051 12.1739C14.2051 12.8527 14.7553 13.4029 15.4341 13.4029Z" fill="#007CC7"/>
<path d="M15.4341 16.8254C16.1128 16.8254 16.6631 16.2752 16.6631 15.5964C16.6631 14.9177 16.1128 14.3674 15.4341 14.3674C14.7553 14.3674 14.2051 14.9177 14.2051 15.5964C14.2051 16.2752 14.7553 16.8254 15.4341 16.8254Z" fill="#007CC7"/>
</svg>
