<svg width="20" height="20" viewBox="0 0 20 20" fill="none" xmlns="http://www.w3.org/2000/svg">
<path d="M18.75 17.5C18.75 17.5 20 17.5 20 16.25C20 15 18.75 11.25 13.75 11.25C8.75 11.25 7.5 15 7.5 16.25C7.5 17.5 8.75 17.5 8.75 17.5H18.75ZM8.7775 16.25C8.76827 16.2487 8.75909 16.2471 8.75 16.245C8.75125 15.915 8.95875 14.9575 9.7 14.095C10.39 13.2863 11.6025 12.5 13.75 12.5C15.8962 12.5 17.1087 13.2875 17.8 14.095C18.5413 14.9575 18.7475 15.9163 18.75 16.245L18.74 16.2475C18.7342 16.2485 18.7284 16.2493 18.7225 16.25H8.7775ZM13.75 8.75C14.413 8.75 15.0489 8.48661 15.5178 8.01777C15.9866 7.54893 16.25 6.91304 16.25 6.25C16.25 5.58696 15.9866 4.95107 15.5178 4.48223C15.0489 4.01339 14.413 3.75 13.75 3.75C13.087 3.75 12.4511 4.01339 11.9822 4.48223C11.5134 4.95107 11.25 5.58696 11.25 6.25C11.25 6.91304 11.5134 7.54893 11.9822 8.01777C12.4511 8.48661 13.087 8.75 13.75 8.75ZM17.5 6.25C17.5 6.74246 17.403 7.23009 17.2145 7.68506C17.0261 8.14003 16.7499 8.55343 16.4017 8.90165C16.0534 9.24987 15.64 9.52609 15.1851 9.71455C14.7301 9.903 14.2425 10 13.75 10C13.2575 10 12.7699 9.903 12.3149 9.71455C11.86 9.52609 11.4466 9.24987 11.0983 8.90165C10.7501 8.55343 10.4739 8.14003 10.2855 7.68506C10.097 7.23009 10 6.74246 10 6.25C10 5.25544 10.3951 4.30161 11.0983 3.59835C11.8016 2.89509 12.7554 2.5 13.75 2.5C14.7446 2.5 15.6984 2.89509 16.4017 3.59835C17.1049 4.30161 17.5 5.25544 17.5 6.25ZM8.67 11.6C8.16998 11.4425 7.65454 11.339 7.1325 11.2913C6.83916 11.2634 6.54466 11.2496 6.25 11.25C1.25 11.25 0 15 0 16.25C0 17.0837 0.41625 17.5 1.25 17.5H6.52C6.33469 17.1098 6.24228 16.6819 6.25 16.25C6.25 14.9875 6.72125 13.6975 7.6125 12.62C7.91625 12.2525 8.27 11.9087 8.67 11.6ZM6.15 12.5C5.41019 13.6116 5.01055 14.9148 5 16.25H1.25C1.25 15.925 1.455 14.9625 2.2 14.095C2.88125 13.3 4.065 12.525 6.15 12.5013V12.5ZM1.875 6.875C1.875 5.88044 2.27009 4.92661 2.97335 4.22335C3.67661 3.52009 4.63044 3.125 5.625 3.125C6.61956 3.125 7.57339 3.52009 8.27665 4.22335C8.97991 4.92661 9.375 5.88044 9.375 6.875C9.375 7.86956 8.97991 8.82339 8.27665 9.52665C7.57339 10.2299 6.61956 10.625 5.625 10.625C4.63044 10.625 3.67661 10.2299 2.97335 9.52665C2.27009 8.82339 1.875 7.86956 1.875 6.875ZM5.625 4.375C4.96196 4.375 4.32607 4.63839 3.85723 5.10723C3.38839 5.57607 3.125 6.21196 3.125 6.875C3.125 7.53804 3.38839 8.17393 3.85723 8.64277C4.32607 9.11161 4.96196 9.375 5.625 9.375C6.28804 9.375 6.92393 9.11161 7.39277 8.64277C7.86161 8.17393 8.125 7.53804 8.125 6.875C8.125 6.21196 7.86161 5.57607 7.39277 5.10723C6.92393 4.63839 6.28804 4.375 5.625 4.375Z" fill="#007CC7"/>
</svg>
