<svg width="19" height="18" viewBox="0 0 19 18" fill="none" xmlns="http://www.w3.org/2000/svg">
<path d="M13.5843 9.00005C13.5822 8.32773 13.5102 7.65745 13.3693 7.00005H15.1693C15.0766 6.72583 14.9647 6.4585 14.8343 6.20005H13.1593C12.8445 5.14808 12.3561 4.15609 11.7143 3.26505C11.3043 3.09265 10.8768 2.96524 10.4393 2.88505C11.3185 3.82967 11.9821 4.95389 12.3843 6.18005H9.68934V2.80005H8.93934V6.18505H6.24434C6.64737 4.95667 7.31275 3.83065 8.19434 2.88505C7.75872 2.9639 7.33291 3.08963 6.92434 3.26005C6.28006 4.14736 5.78832 5.13593 5.46934 6.18505H3.78434C3.65162 6.44822 3.53799 6.72059 3.44434 7.00005H5.25934C5.11848 7.65745 5.04643 8.32773 5.04434 9.00005C5.04572 9.73544 5.12958 10.4684 5.29434 11.185H3.52434C3.62778 11.4653 3.75143 11.7377 3.89434 12H5.50934C5.81544 12.9579 6.26924 13.8622 6.85434 14.68C7.27332 14.8598 7.71102 14.9922 8.15934 15.075C7.3433 14.1849 6.71571 13.139 6.31434 12H8.94434V15.17H9.69434V12H12.3143C11.9116 13.1394 11.2823 14.1855 10.4643 15.075C10.9148 14.9894 11.3542 14.8535 11.7743 14.67C12.3585 13.8552 12.8123 12.9545 13.1193 12H14.7193C14.8616 11.7425 14.9852 11.4752 15.0893 11.2H13.3143C13.4869 10.4792 13.5775 9.74121 13.5843 9.00005ZM8.93934 11.185H6.06934C5.71732 9.80897 5.70189 8.36835 6.02434 6.98505H8.93934V11.185ZM12.5593 11.185H9.68934V7.00005H12.6043C12.748 7.65692 12.8184 8.32767 12.8143 9.00005C12.8184 9.73604 12.7328 10.4698 12.5593 11.185Z" fill="white"/>
<path d="M9.31446 1C7.73221 1 6.18549 1.46919 4.86989 2.34824C3.5543 3.22729 2.52892 4.47672 1.92342 5.93853C1.31792 7.40034 1.15949 9.00887 1.46817 10.5607C1.77686 12.1126 2.53878 13.538 3.6576 14.6569C4.77642 15.7757 6.20189 16.5376 7.75373 16.8463C9.30558 17.155 10.9141 16.9965 12.3759 16.391C13.8377 15.7855 15.0872 14.7602 15.9662 13.4446C16.8453 12.129 17.3145 10.5823 17.3145 9C17.3145 6.87827 16.4716 4.84344 14.9713 3.34315C13.471 1.84285 11.4362 1 9.31446 1ZM9.31446 16C7.92999 16 6.57661 15.5895 5.42547 14.8203C4.27432 14.0511 3.37711 12.9579 2.8473 11.6788C2.31749 10.3997 2.17886 8.99224 2.44896 7.63437C2.71906 6.2765 3.38574 5.02922 4.36471 4.05025C5.34368 3.07128 6.59096 2.4046 7.94882 2.1345C9.30669 1.86441 10.7142 2.00303 11.9932 2.53284C13.2723 3.06266 14.3656 3.95986 15.1347 5.11101C15.9039 6.26215 16.3145 7.61553 16.3145 9C16.3145 10.8565 15.577 12.637 14.2642 13.9497C12.9514 15.2625 11.171 16 9.31446 16Z" fill="white"/>
</svg>
