<svg width="48" height="48" viewBox="0 0 48 48" fill="none" xmlns="http://www.w3.org/2000/svg">
<path d="M44.0351 21.9938C43.3479 21.0816 40.7951 20.4534 39.7151 18.8119C38.6351 17.1703 37.751 13.6153 35.0023 12.2494C32.2535 10.8834 26.9998 10.5 23.9998 10.5C20.9998 10.5 15.7498 10.875 12.9973 12.2466C10.2448 13.6181 9.36445 17.1703 8.28445 18.8091C7.20445 20.4478 4.65164 21.0816 3.96445 21.9938C3.27727 22.9059 2.79351 28.6725 3.08789 31.5C3.38226 34.3275 3.93164 36 3.93164 36H11.9941C13.3141 36 13.7435 35.5041 16.4435 35.25C19.406 34.9688 22.3123 34.875 23.9998 34.875C25.6873 34.875 28.6873 34.9688 31.6479 35.25C34.3479 35.5059 34.7913 36 36.0973 36H44.066C44.066 36 44.6154 34.3275 44.9098 31.5C45.2041 28.6725 44.7185 22.9059 44.0351 21.9938Z" stroke="current" stroke-linecap="round" stroke-linejoin="round"/>
<path d="M37.5 36H42.75V37.5H37.5V36Z" stroke="current" stroke-linecap="round" stroke-linejoin="round"/>
<path d="M5.25 36H10.5V37.5H5.25V36Z" stroke="current" stroke-linecap="round" stroke-linejoin="round"/>
<path d="M34.169 28.9838C33.6149 28.3434 31.8093 27.8091 29.4187 27.4509C27.0281 27.0928 26.1562 27 24.0187 27C21.8812 27 20.909 27.1537 18.6178 27.4509C16.3265 27.7481 14.6062 28.2769 13.8684 28.9838C12.7612 30.0563 14.3831 31.26 15.6562 31.4063C16.8899 31.5469 19.3565 31.4953 24.029 31.4953C28.7015 31.4953 31.1681 31.5469 32.4018 31.4063C33.6731 31.2516 35.1787 30.1313 34.169 28.9838Z" fill="white"/>
<path d="M40.4596 22.7861C40.4544 22.7117 40.4218 22.6418 40.3682 22.5899C40.3145 22.538 40.2436 22.5077 40.169 22.5049C39.0618 22.4655 37.9378 22.5442 35.9437 23.1321C34.9264 23.4291 33.971 23.9074 33.1237 24.5439C32.91 24.7108 32.9859 25.1617 33.254 25.2096C34.8976 25.4023 36.551 25.4994 38.2059 25.5002C39.1987 25.5002 40.2234 25.2189 40.4137 24.3339C40.5107 23.8237 40.5262 23.3012 40.4596 22.7861Z" fill="white"/>
<path d="M7.54055 22.7861C7.54581 22.7117 7.57839 22.6418 7.63203 22.5899C7.68567 22.538 7.75659 22.5077 7.83118 22.5049C8.93836 22.4655 10.0624 22.5442 12.0565 23.1321C13.0738 23.4291 14.0292 23.9074 14.8765 24.5439C15.0902 24.7108 15.0143 25.1617 14.7462 25.2096C13.1026 25.4023 11.4492 25.4994 9.7943 25.5002C8.80149 25.5002 7.7768 25.2189 7.58649 24.3339C7.48946 23.8237 7.47396 23.3012 7.54055 22.7861Z" fill="white"/>
<path d="M40.5 18H42" stroke="current" stroke-linecap="round" stroke-linejoin="round"/>
<path d="M6 18H7.5" stroke="current" stroke-linecap="round" stroke-linejoin="round"/>
<path d="M7.3125 19.7812C7.3125 19.7812 11.6578 18.6562 24 18.6562C36.3422 18.6562 40.6875 19.7812 40.6875 19.7812" stroke="current" stroke-linecap="round" stroke-linejoin="round"/>
</svg>
