<svg width="40" height="30" viewBox="0 0 40 30" fill="none" xmlns="http://www.w3.org/2000/svg">
<path d="M10.2502 1.46905e-05C8.27023 1.46905e-05 6.50623 1.29001 5.93773 3.18751L3.87523 10.0785L0.968227 9.09451L0.0322266 11.9055L2.98423 12.891L2.04673 16.0785C2.01077 16.216 1.9951 16.358 2.00023 16.5V28.5C2.00023 29.325 2.67523 30 3.50023 30H8.00023L8.51623 28.5H31.4842L32.0002 30H36.5002C37.3252 30 38.0002 29.325 38.0002 28.5V27.234C38.0062 27.159 38.0062 27.0765 38.0002 27V16.5C38.0054 16.358 37.9897 16.216 37.9537 16.0785L37.0162 12.891L39.9682 11.907L39.0307 9.09302L36.1252 10.0785L34.0627 3.18751C33.7817 2.26343 33.2105 1.45443 32.4338 0.880326C31.6571 0.306222 30.7161 -0.00245377 29.7502 1.46905e-05H10.2502ZM10.2502 3.00001H29.7502C30.4177 3.00001 31.0102 3.43951 31.2037 4.07851L33.1252 10.5H6.87523L8.79673 4.07851C8.99173 3.43351 9.58273 3.00001 10.2502 3.00001ZM5.98423 13.5H34.0162L35.0002 16.782V25.5H5.00023V16.7805L5.98423 13.5ZM8.75023 15C8.15349 15 7.58119 15.2371 7.15924 15.659C6.73728 16.081 6.50023 16.6533 6.50023 17.25C6.50023 17.8468 6.73728 18.419 7.15924 18.841C7.58119 19.263 8.15349 19.5 8.75023 19.5C9.34696 19.5 9.91926 19.263 10.3412 18.841C10.7632 18.419 11.0002 17.8468 11.0002 17.25C11.0002 16.6533 10.7632 16.081 10.3412 15.659C9.91926 15.2371 9.34696 15 8.75023 15ZM31.2502 15C30.6535 15 30.0812 15.2371 29.6592 15.659C29.2373 16.081 29.0002 16.6533 29.0002 17.25C29.0002 17.8468 29.2373 18.419 29.6592 18.841C30.0812 19.263 30.6535 19.5 31.2502 19.5C31.847 19.5 32.4193 19.263 32.8412 18.841C33.2632 18.419 33.5002 17.8468 33.5002 17.25C33.5002 16.6533 33.2632 16.081 32.8412 15.659C32.4193 15.2371 31.847 15 31.2502 15ZM14.0002 19.5L12.1252 24H15.3592L16.0162 22.5H23.9842L24.6412 24H27.8752L26.0002 19.5H14.0002Z" fill="white"/>
</svg>
