<svg width="72" height="54" viewBox="0 0 72 54" fill="none" xmlns="http://www.w3.org/2000/svg">
<path d="M61.8772 15.7558L61.8812 15.7656H61.8917H70.311C71.3991 15.7656 72.1974 16.7883 71.9341 17.8429L71.0903 21.2179C70.905 21.9619 70.2363 22.4844 69.4686 22.4844H66.6463H66.6046L66.636 22.5118C68.52 24.1586 69.7342 26.552 69.7342 29.25V36C69.7342 38.2642 68.8696 40.3067 67.4881 41.8861L67.4842 41.8827V41.8964V49.5C67.4842 51.9762 65.4761 53.9844 62.9999 53.9844H58.4999C56.0236 53.9844 54.0155 51.9762 54.0155 49.5V45V44.9844H53.9999H17.9999H17.9842V45V49.5C17.9842 51.9762 15.9761 53.9844 13.4999 53.9844H8.99986C6.52364 53.9844 4.51548 51.9762 4.51548 49.5V41.8964H4.52061L4.51162 41.8861C3.13014 40.3053 2.26548 38.2628 2.26548 36V29.25C2.26548 26.552 3.47968 24.1586 5.36513 22.5118L5.3965 22.4844H5.35486H2.53251C1.76483 22.4844 1.09609 21.9619 0.910798 21.2179L0.895636 21.2217L0.910794 21.2179L0.0670445 17.8429L0.067041 17.8429C-0.197667 16.7883 0.600637 15.7656 1.68876 15.7656H10.1066H10.1172L10.1211 15.7558L12.4611 9.9058C14.8648 3.8972 20.5994 0.015625 27.0702 0.015625H44.9295C51.4017 0.015625 57.1349 3.8972 59.5372 9.9058L61.8772 15.7558ZM53.9999 20.2656H54.0229L54.0144 20.2442L51.2117 13.2369C50.1842 10.6687 47.6964 8.98438 44.9295 8.98438H27.0702C24.3033 8.98438 21.8155 10.6687 20.788 13.2369L17.9853 20.2442L17.9768 20.2656H17.9999H53.9999ZM8.98423 31.4859C8.98423 32.8353 9.43549 33.9609 10.2263 34.7493C11.0172 35.5377 12.1463 35.9875 13.4999 35.9875C13.8267 35.9875 14.1737 35.9941 14.531 36.0009C15.6477 36.0221 16.8659 36.0453 17.8899 35.8751C18.566 35.7628 19.1597 35.566 19.5846 35.2271C20.0103 34.8876 20.2655 34.4064 20.2655 33.7289C20.2655 33.0524 20.0111 32.2927 19.5885 31.5344C19.1658 30.7759 18.5742 30.0178 17.8984 29.3441C17.2225 28.6703 16.462 28.0806 15.7012 27.6592C14.9405 27.238 14.1785 26.9844 13.4999 26.9844C12.1463 26.9844 11.0172 27.4342 10.2263 28.2226C9.43549 29.0109 8.98423 30.1366 8.98423 31.4859ZM51.7342 33.7289C51.7342 34.4064 51.9894 34.8876 52.4151 35.2271C52.84 35.566 53.4337 35.7628 54.1098 35.8751C55.1338 36.0453 56.352 36.0221 57.4687 36.0009C57.826 35.9941 58.173 35.9875 58.4999 35.9875C59.8534 35.9875 60.9826 35.5377 61.7734 34.7493C62.5642 33.9609 63.0155 32.8353 63.0155 31.4859C63.0155 30.1366 62.5642 29.0109 61.7734 28.2226C60.9826 27.4342 59.8534 26.9844 58.4999 26.9844C57.8212 26.9844 57.0592 27.238 56.2985 27.6592C55.5377 28.0806 54.7772 28.6703 54.1013 29.3441C53.4255 30.0178 52.8339 30.7759 52.4112 31.5344C51.9886 32.2927 51.7342 33.0524 51.7342 33.7289Z" fill="#989898" stroke="#676767" stroke-width="0.03125"/>
</svg>
